# xmcd
#
# Track frame offsets:
#	150
#	18353
#	33957
#	49997
#	69362
#	102464
#	123168
#	139779
#	155552
#	174568
#	195727
#	210552
#
# Disc length: 3084
#
# Revision: 1
# Processed by: cddbd v1.5.1PL0 Copyright (c) Steve Scherf et al.
# Submitted via: ExactAudioCopy v0.95a5
# Normalized: r0:TRMNUM
#
DISCID=a40c0a0c
DTITLE=Coen Wolters Band - broken glass
DYEAR=2004
DGENRE=Blues
TTITLE0=Don't wanna miss a thing
TTITLE1=Time after time
TTITLE2=Kings Cafe
TTITLE3=She takes my breath away
TTITLE4=Ain't no way
TTITLE5=Mail order mystics
TTITLE6=Ride the katy
TTITLE7=Spanish castle magic
TTITLE8=Little things you do
TTITLE9=Blues on a rainy day
TTITLE10=Ticket to ride
TTITLE11=Suite 1210
EXTD=
EXTT0=
EXTT1=
EXTT2=
EXTT3=
EXTT4=
EXTT5=
EXTT6=
EXTT7=
EXTT8=
EXTT9=
EXTT10=
EXTT11=
PLAYORDER=
